ply
format ascii 1.0
comment Created by Blender 2.72 (sub 0) - www.blender.org, source file: ''
element vertex 10
property float x
property float y
property float z
property float nx
property float ny
property float nz
property float s
property float t
element face 6
property list uchar uint vertex_indices
end_header
-1.000000 -1.000000 0.000000 0.000000 0.000000 1.000000 0.000000 0.130435
1.000000 -1.000000 0.000000 0.000000 0.000000 1.000000 1.000000 0.130435
1.000000 1.000000 0.000000 0.000000 0.000000 1.000000 1.000000 1.000000
1.000000 1.000000 0.000000 0.000000 -0.000000 1.000000 0.000000 0.869565
1.000000 -1.000000 0.000000 0.000000 -0.000000 1.000000 0.000000 0.000000
2.000000 -0.700000 0.000000 0.000000 -0.000000 1.000000 1.000000 0.130435
-0.500000 -1.300000 0.000000 0.000000 -0.000000 1.000000 0.250000 0.000000
-1.000000 1.000000 0.000000 0.000000 -0.000000 1.000000 0.000000 1.000000
2.000000 1.300000 0.000000 0.000000 -0.000000 1.000000 1.000000 1.000000
0.500000 -1.300000 0.000000 -0.000000 0.000000 1.000000 0.750000 0.000000
3 0 1 2
3 3 4 5
3 1 0 6
3 7 0 2
3 8 3 5
3 9 1 6
